<?xml version="1.0" standalone="no"?>
<!DOCTYPE svg PUBLIC "-//W3C//DTD SVG 20010904//EN"
 "http://www.w3.org/TR/2001/REC-SVG-20010904/DTD/svg10.dtd">
<svg version="1.0" xmlns="http://www.w3.org/2000/svg"
 width="426.000000pt" height="426.000000pt" viewBox="0 0 426.000000 426.000000"
 preserveAspectRatio="xMidYMid meet">
<metadata>
Created by potrace 1.11, written by Peter Selinger 2001-2013
</metadata>
<g transform="translate(0.000000,426.000000) scale(0.100000,-0.100000)"
fill="#000000" stroke="none">
<path d="M2630 2150 l0 -1070 95 0 95 0 0 148 1 147 21 -30 c48 -67 155 -162
225 -198 105 -55 203 -77 337 -77 148 0 230 19 354 80 271 134 419 411 399
744 -13 204 -80 360 -211 492 -126 126 -262 191 -444 213 -256 31 -510 -68
-644 -253 l-28 -39 0 456 0 457 -100 0 -100 0 0 -1070z m951 246 c235 -82 373
-289 372 -561 0 -175 -57 -321 -167 -431 -104 -104 -232 -154 -396 -154 -242
0 -428 121 -517 335 -67 160 -56 410 24 558 59 108 184 216 294 252 126 42
271 42 390 1z"/>
</g>
</svg>
